<svg width="244" height="48" fill="none" xmlns="http://www.w3.org/2000/svg"><path d="M39.235 10.497v27.11h7.483v-14.21c0-2.762.456-4.737 1.37-5.926.913-1.223 2.389-1.835 4.426-1.835 1.792 0 3.039.56 3.742 1.678.702 1.084 1.054 2.744 1.054 4.982v15.31h7.482V20.933c0-1.678-.158-3.198-.474-4.562-.281-1.398-.79-2.57-1.528-3.513-.738-.979-1.757-1.73-3.056-2.255-1.265-.56-2.899-.839-4.901-.839-1.581 0-3.127.367-4.637 1.101-1.511.7-2.74 1.836-3.69 3.409h-.157v-3.776h-7.114ZM70.155 18.835c.105-1.748.544-3.199 1.317-4.353a8.952 8.952 0 0 1 2.952-2.779c1.194-.699 2.529-1.188 4.004-1.468a22.17 22.17 0 0 1 4.532-.472c1.37 0 2.758.105 4.163.315 1.405.175 2.687.542 3.846 1.101a7.475 7.475 0 0 1 2.846 2.36c.738.978 1.107 2.29 1.107 3.932v14.106c0 1.223.07 2.394.21 3.513.14 1.119.387 1.957.738 2.517h-7.588c-.14-.42-.263-.84-.369-1.258-.07-.455-.123-.91-.158-1.364a9.757 9.757 0 0 1-4.215 2.57c-1.617.489-3.268.733-4.954.733-1.3 0-2.511-.157-3.636-.471-1.124-.315-2.108-.805-2.95-1.468a7.096 7.096 0 0 1-2.003-2.518c-.457-1.013-.685-2.22-.685-3.618 0-1.538.263-2.796.79-3.775.563-1.014 1.265-1.818 2.108-2.412a9.39 9.39 0 0 1 2.951-1.311 29.104 29.104 0 0 1 3.372-.734 57.499 57.499 0 0 1 3.32-.42 20.04 20.04 0 0 0 2.898-.472c.844-.21 1.511-.506 2.003-.891.492-.42.72-1.014.685-1.783 0-.804-.14-1.433-.421-1.887a2.471 2.471 0 0 0-1.055-1.102c-.421-.28-.93-.454-1.527-.524a10.071 10.071 0 0 0-1.845-.157c-1.475 0-2.635.314-3.478.944-.843.629-1.335 1.677-1.475 3.146h-7.483Zm17.284 5.505c-.316.28-.72.507-1.212.682-.457.14-.966.262-1.528.367-.527.105-1.09.192-1.687.262s-1.194.158-1.791.262c-.562.105-1.124.245-1.686.42a4.985 4.985 0 0 0-1.423.734c-.386.28-.703.647-.949 1.101-.245.455-.368 1.032-.368 1.73 0 .665.123 1.224.368 1.679.246.454.58.821 1.002 1.1.421.245.913.42 1.475.525a9.468 9.468 0 0 0 1.739.157c1.475 0 2.617-.244 3.425-.734.808-.489 1.405-1.066 1.792-1.73.386-.7.615-1.398.685-2.098.105-.699.158-1.258.158-1.677v-2.78ZM100.94.167v37.44h7.483V.166h-7.483ZM120.954 24.078c0-1.083.106-2.15.317-3.198.211-1.049.562-1.975 1.054-2.78a6.057 6.057 0 0 1 2.055-1.94c.843-.524 1.897-.786 3.161-.786 1.265 0 2.319.262 3.162.786.878.49 1.564 1.137 2.055 1.94.527.805.896 1.731 1.107 2.78.211 1.048.316 2.115.316 3.198 0 1.084-.105 2.15-.316 3.199a8.392 8.392 0 0 1-1.107 2.779c-.491.804-1.177 1.45-2.055 1.94-.843.49-1.897.734-3.162.734-1.264 0-2.318-.244-3.161-.734a6.058 6.058 0 0 1-2.055-1.94 9.127 9.127 0 0 1-1.054-2.78 16.176 16.176 0 0 1-.317-3.198Zm-7.482 0c0 2.168.334 4.125 1.001 5.873.668 1.748 1.616 3.251 2.846 4.51 1.229 1.223 2.705 2.167 4.426 2.831 1.721.664 3.654.996 5.796.996 2.143 0 4.076-.332 5.797-.996 1.756-.664 3.25-1.608 4.479-2.831 1.229-1.259 2.178-2.762 2.845-4.51.668-1.748 1.002-3.705 1.002-5.873 0-2.167-.334-4.125-1.002-5.873-.667-1.782-1.616-3.286-2.845-4.51-1.229-1.258-2.723-2.219-4.479-2.883-1.721-.7-3.654-1.049-5.797-1.049-2.142 0-4.075.35-5.796 1.049-1.721.664-3.197 1.625-4.426 2.884-1.23 1.223-2.178 2.727-2.846 4.51-.667 1.747-1.001 3.705-1.001 5.872ZM159.229 31.21c-1.16 0-2.126-.245-2.899-.735a6.097 6.097 0 0 1-1.897-1.887 8.74 8.74 0 0 1-1.001-2.57 16.561 16.561 0 0 1-.264-2.936c0-1.014.106-1.975.317-2.884.245-.944.614-1.765 1.106-2.465a5.945 5.945 0 0 1 1.897-1.73c.773-.42 1.687-.63 2.741-.63 1.229 0 2.248.228 3.056.682a5.437 5.437 0 0 1 1.949 1.836c.492.769.844 1.66 1.054 2.674.211.979.316 2.028.316 3.146 0 .979-.14 1.923-.421 2.832a7.076 7.076 0 0 1-1.159 2.36 5.838 5.838 0 0 1-2.003 1.677c-.808.42-1.739.63-2.792.63Zm13.489 4.666V10.497h-7.114v3.618h-.105c-.913-1.573-2.055-2.691-3.425-3.356-1.335-.664-2.898-.996-4.69-.996-1.897 0-3.583.367-5.059 1.101a10.763 10.763 0 0 0-3.636 2.99c-.983 1.223-1.738 2.656-2.266 4.299a17.141 17.141 0 0 0-.737 5.034c0 1.853.211 3.618.632 5.296.457 1.643 1.159 3.094 2.108 4.352.948 1.224 2.16 2.202 3.636 2.936 1.475.7 3.232 1.05 5.269 1.05 1.651 0 3.215-.333 4.69-.997 1.511-.699 2.67-1.765 3.478-3.199h.105v3.566c.036 1.923-.439 3.513-1.422 4.772-.949 1.258-2.477 1.888-4.585 1.888-1.335 0-2.512-.28-3.53-.84-1.019-.524-1.704-1.485-2.055-2.883h-7.431c.106 1.538.528 2.848 1.265 3.932a9.593 9.593 0 0 0 2.846 2.727 12.876 12.876 0 0 0 3.794 1.52c1.405.35 2.775.525 4.11.525 3.127 0 5.621-.42 7.483-1.258 1.862-.84 3.284-1.87 4.268-3.094.984-1.189 1.616-2.482 1.897-3.88.316-1.399.474-2.64.474-3.724ZM204.3 37.606V10.497h-7.483v14.21c0 2.762-.456 4.755-1.37 5.978-.913 1.189-2.389 1.783-4.426 1.783-1.792 0-3.039-.542-3.742-1.626-.702-1.118-1.054-2.796-1.054-5.034v-15.31h-7.482v16.674c0 1.678.14 3.216.421 4.614.317 1.364.843 2.535 1.581 3.513.738.944 1.739 1.678 3.004 2.203 1.299.524 2.951.786 4.953.786 1.581 0 3.127-.35 4.637-1.048 1.511-.7 2.741-1.836 3.689-3.409h.158v3.775h7.114ZM228.317 21.142h-12.173a9.538 9.538 0 0 1 .317-1.783 6.109 6.109 0 0 1 1.001-1.888c.492-.594 1.124-1.083 1.896-1.468.809-.42 1.81-.63 3.004-.63 1.827 0 3.18.49 4.058 1.47.913.978 1.546 2.411 1.897 4.299Zm-12.173 4.72h19.655c.141-2.098-.035-4.108-.527-6.031-.491-1.923-1.299-3.636-2.424-5.139-1.089-1.503-2.494-2.691-4.215-3.566-1.721-.908-3.742-1.363-6.06-1.363-2.072 0-3.97.367-5.691 1.101a13.283 13.283 0 0 0-4.374 3.042c-1.229 1.258-2.178 2.761-2.845 4.51-.668 1.747-1.001 3.635-1.001 5.662 0 2.098.316 4.02.948 5.768.668 1.748 1.599 3.251 2.793 4.51 1.194 1.258 2.652 2.237 4.374 2.936 1.721.664 3.653.996 5.796.996 3.091 0 5.726-.698 7.904-2.097 2.178-1.398 3.794-3.723 4.848-6.974h-6.587c-.246.839-.913 1.643-2.002 2.412-1.089.734-2.389 1.101-3.9 1.101-2.107 0-3.723-.542-4.847-1.625-1.125-1.084-1.739-2.832-1.845-5.244Z" fill="#fff"/><path fill-rule="evenodd" clip-rule="evenodd" d="M7.821 22.907c-.808.694-1.005.834-1.68.834v5.855c2.872 0 4.461-1.366 5.447-2.213l.035-.03c.808-.694 1.006-.834 1.68-.834.676 0 .874.14 1.682.834l.035.03c.985.847 2.575 2.213 5.448 2.213 2.872 0 4.462-1.366 5.448-2.213l.034-.03c.808-.694 1.006-.834 1.681-.834s.873.14 1.681.834l.035.03c.986.847 2.575 2.213 5.448 2.213 2.872 0 4.462-1.366 5.448-2.213l.035-.03c.807-.694 1.005-.834 1.68-.834v-5.855c-2.872 0-4.462 1.366-5.447 2.213l-.035.03c-.808.694-1.006.834-1.681.834s-.873-.14-1.681-.834l-.035-.03c-.986-.847-2.575-2.213-5.448-2.213-2.872 0-4.462 1.366-5.448 2.213l-.035.03c-.807.694-1.005.834-1.68.834-.676 0-.874-.14-1.681-.834l-.035-.03c-.986-.847-2.576-2.213-5.448-2.213-2.873 0-4.462 1.366-5.448 2.213l-.035.03Z" fill="#fff"/><path d="m18.327 9.248-4.898 13.767-2.16 6.148-2.948 8.355H0L14.219 0h8.479l14.06 37.518h-8.583l-2.844-8.355-2.16-6.148-4.739-13.767h-.105ZM238.808 6.231v-1.23h.781c.104 0 .212.008.323.023a.968.968 0 0 1 .313.09.548.548 0 0 1 .234.167.473.473 0 0 1 .089.302c0 .283-.086.462-.257.537-.171.074-.39.111-.658.111h-.825Zm-.926-1.956v4.684h.926v-2h.58l1.138 2h.97l-1.249-2.046c.171-.015.331-.048.479-.1.149-.052.279-.127.391-.224a.94.94 0 0 0 .256-.369c.067-.156.101-.343.101-.559 0-.507-.16-.864-.48-1.073-.312-.209-.762-.313-1.35-.313h-1.762Zm-1.483 2.348c0-.477.081-.913.245-1.308.164-.403.387-.75.669-1.04.283-.29.614-.518.993-.682a3.135 3.135 0 0 1 1.238-.246c.431 0 .837.082 1.216.246.386.164.721.391 1.004.682.282.29.506.637.669 1.04.171.395.256.83.256 1.308 0 .477-.085.916-.256 1.319a3.336 3.336 0 0 1-.669 1.05c-.283.292-.618.519-1.004.683a3.032 3.032 0 0 1-1.216.246c-.439 0-.852-.082-1.238-.246a3.076 3.076 0 0 1-.993-.682 3.354 3.354 0 0 1-.669-1.051 3.463 3.463 0 0 1-.245-1.32Zm-1.138 0c0 .64.115 1.218.345 1.733.239.514.555.954.948 1.319.395.365.849.644 1.361.838.521.194 1.064.291 1.629.291s1.104-.097 1.617-.29a4.005 4.005 0 0 0 2.309-2.158c.238-.515.357-1.092.357-1.733a4.05 4.05 0 0 0-.357-1.722 3.883 3.883 0 0 0-.936-1.308 4.11 4.11 0 0 0-1.373-.839 4.388 4.388 0 0 0-1.617-.301c-.565 0-1.108.1-1.629.301a4.148 4.148 0 0 0-1.361.839 4.057 4.057 0 0 0-.948 1.308 4.171 4.171 0 0 0-.345 1.722Z" fill="#fff"/></svg>