<svg width="133" height="34" fill="none" xmlns="http://www.w3.org/2000/svg"><g opacity=".6" fill="#30424F"><path opacity=".6" fill-rule="evenodd" clip-rule="evenodd" d="M19.356 1.77a1.386 1.386 0 0 1 1.088.106c.729.4 1.283 1.093 1.695 1.787.429.723.788 1.588 1.068 2.508.556 1.832.845 4.039.641 6.054a1.385 1.385 0 0 1-2.756-.279c.162-1.596-.069-3.433-.536-4.97a10.501 10.501 0 0 0-.423-1.159c-.453 1.155-.918 2.427-1.125 3.118a1.385 1.385 0 0 1-2.653-.797c.403-1.342 1.622-4.507 2.176-5.652.165-.342.464-.6.825-.716Z"/><path opacity=".6" fill-rule="evenodd" clip-rule="evenodd" d="M14.983 8.1a1.662 1.662 0 0 1 2.084-1.085 16.12 16.12 0 0 1 2.53 1.058l.005.003c3.836 1.99 6.617 5.35 7.376 8.815.011.043.029.08.046.107.017.026.029.035.029.035l.01.007 2.83 2.032.003.003c1.007.728 1.267 1.919 1.218 2.777-.049.857-.443 2.026-1.554 2.624l-.007.004c-1.448.771-3.197 1.01-5.867.537l-.036-.007c-.063-.012-.128-.022-.242-.04l-.008-.001c-.089-.014-.218-.034-.355-.062-2.051-.325-3.417-.289-4.26-.062-.753.203-.947.5-1.038.793-.63 2.081-.053 3.303.73 4.963.124.264.254.54.385.832a1.662 1.662 0 0 1-3.033 1.36 27.16 27.16 0 0 0-.319-.674c-.82-1.695-1.968-4.068-.943-7.447l.002-.005c.493-1.608 1.736-2.595 3.352-3.03 1.52-.409 3.447-.363 5.692-.003.033.005.066.011.098.018a3.222 3.222 0 0 0 .223.038c.089.014.216.033.348.06 1.958.344 2.908.161 3.502-.101l-2.656-1.908c-.732-.52-1.197-1.294-1.386-2.091a1.236 1.236 0 0 1-.008-.034c-.501-2.317-2.51-4.955-5.662-6.59a12.824 12.824 0 0 0-2.003-.843A1.66 1.66 0 0 1 14.983 8.1Z"/><path opacity=".6" fill-rule="evenodd" clip-rule="evenodd" d="M11.057 4.477c-.036.493-.075.974-.111 1.423l-.038.465c-.088 1.075-.151 1.837-.151 2.147 0 .623-.32 1.338-1.048 1.702-.814.407-1.938 1.034-2.94 1.776l-.042.03c.282.076.504.157.649.214a1.737 1.737 0 0 1 1.114 1.47 1.768 1.768 0 0 1-.674 1.552 11.123 11.123 0 0 0-2.223 2.357 8.94 8.94 0 0 0-1.175 2.309c1.338-.224 2.722 1.075 2.093 2.59-.523 1.367-1.906 5.47-1.59 9.694a1.661 1.661 0 0 1-3.315.247c-.221-2.96.257-5.812.8-7.95a1.9 1.9 0 0 1-.61-.175 1.86 1.86 0 0 1-1.058-1.62c-.147-2.922.953-5.31 2.128-6.995.078-.112.157-.22.236-.327a1.92 1.92 0 0 1-.993-.524 1.877 1.877 0 0 1-.392-2.084c.615-1.425 1.917-2.603 3.074-3.458a23.03 23.03 0 0 1 2.683-1.687c.03-.44.073-.968.12-1.521l.039-.482c.102-1.255.212-2.68.254-3.908a1.711 1.711 0 0 1 1.232-1.6 1.86 1.86 0 0 1 .557-.079h.002c.183 0 .365.03.538.09 1.646.563 3.05 1.742 4.257 3.049 1.22 1.318 2.367 2.91 3.456 4.464a1.663 1.663 0 0 1-2.723 1.906c-1.092-1.56-2.125-2.982-3.174-4.116-.335-.363-.66-.682-.975-.959ZM6.156 15.324a1.612 1.612 0 0 0 .01.004l-.01-.004Z"/><path opacity=".6" d="M48.124 12.251c-.583.605-1.555.627-2.181.086a1.96 1.96 0 0 0-1.318-.54c-1.058 0-1.922.886-1.922 1.988v3.156h2.42c.841 0 1.554.692 1.554 1.534 0 .865-.713 1.556-1.555 1.556h-2.419v6.463c0 .843-.713 1.556-1.577 1.556a1.577 1.577 0 0 1-1.555-1.556v-12.73c0-2.788 2.29-5.057 5.054-5.057a5.08 5.08 0 0 1 3.434 1.34c.605.605.627 1.577.065 2.204ZM53.804 28.072c-3.498 0-6.371-2.853-6.371-6.376 0-3.501 2.873-6.376 6.371-6.376 3.5 0 6.372 2.875 6.394 6.398a6.4 6.4 0 0 1-6.394 6.354Zm0-9.618a3.26 3.26 0 0 0-3.261 3.264 3.26 3.26 0 0 0 3.261 3.263 3.26 3.26 0 0 0 3.262-3.263c-.022-1.816-1.469-3.264-3.262-3.264ZM67.822 28.05a6.346 6.346 0 0 1-4.427-1.772 6.569 6.569 0 0 1-1.966-4.474c-.022-1.686.583-3.307 1.793-4.517 1.166-1.21 2.743-1.902 4.45-1.967 1.705-.021 3.304.606 4.513 1.794.605.562.627 1.556.043 2.14a1.531 1.531 0 0 1-2.16.043 3.389 3.389 0 0 0-2.354-.95c-.885 0-1.706.388-2.332 1.015-.584.627-.95 1.47-.907 2.356 0 .864.388 1.729 1.015 2.312a3.194 3.194 0 0 0 2.332.951c.843 0 1.62-.324 2.225-.886.583-.583 1.577-.54 2.138.087.583.605.54 1.577-.086 2.16a6.337 6.337 0 0 1-4.212 1.708h-.065ZM80.242 28.201c-3.305 0-6.027-2.874-6.027-6.375v-4.863c0-.843.627-1.535 1.426-1.535.82 0 1.598.692 1.598 1.535v4.863c0 1.837 1.533 3.306 3.002 3.306 1.728 0 3.024-1.47 3.024-3.306v-4.647c0-.865.885-1.535 1.577-1.535.778 0 1.447.67 1.447 1.535v4.647c0 3.5-2.7 6.375-6.047 6.375ZM92.638 28.18c-1.62 0-3.261-.67-4.082-1.449-.604-.562-.67-1.534-.086-2.14a1.508 1.508 0 0 1 2.139-.107c.453.432 2.16 1.015 3.131.389a.834.834 0 0 0 .41-.713c0-.346-.302-.606-.561-.714-.238-.13-.627-.13-1.102-.13-.604 0-1.295-.021-2.008-.28-1.318-.433-2.397-1.794-2.484-3.134-.13-1.6.561-2.594 1.144-3.156 1.275-1.167 3.132-1.34 4.471-1.123 1.016.173 1.772.54 2.42 1.123.605.562.669 1.535.107 2.14-.324.346-.82.54-1.296.476a1.567 1.567 0 0 1-.67-.238c-.344-.26-.604-.432-1.057-.519-.756-.13-2.181-.086-2.074 1.016.022.13.259.454.454.54.259.087.626.087 1.037.087.669.021 1.49.021 2.332.41 1.404.627 2.311 2.01 2.311 3.48 0 1.297-.67 2.507-1.75 3.263-.863.584-1.814.778-2.786.778ZM107.498 12.251c-.583.605-1.555.627-2.181.086a1.96 1.96 0 0 0-1.318-.54c-1.059 0-1.922.886-1.922 1.988v3.156h2.419c.842 0 1.555.692 1.555 1.534 0 .865-.713 1.556-1.555 1.556h-2.419v6.463c0 .843-.713 1.556-1.577 1.556a1.577 1.577 0 0 1-1.555-1.556v-12.73c0-2.788 2.29-5.057 5.054-5.057a5.08 5.08 0 0 1 3.434 1.34c.605.605.626 1.577.065 2.204ZM113.158 28.072c-3.499 0-6.371-2.853-6.371-6.376 0-3.501 2.872-6.376 6.371-6.376 3.499 0 6.372 2.875 6.393 6.398-.021 3.522-2.894 6.354-6.393 6.354Zm0-9.618a3.259 3.259 0 0 0-3.261 3.264 3.259 3.259 0 0 0 3.261 3.263 3.246 3.246 0 0 0 3.261-3.263 3.246 3.246 0 0 0-3.261-3.264ZM132.208 25.543c.562.583.54 1.534-.043 2.118a1.47 1.47 0 0 1-1.037.41c-.389 0-.756-.151-1.059-.454l-3.563-3.695-3.499 3.63a1.438 1.438 0 0 1-1.058.454c-.346 0-.735-.13-1.037-.41-.583-.584-.605-1.535-.022-2.118l3.586-3.718-3.608-3.739c-.561-.605-.561-1.556.044-2.118.583-.583 1.533-.562 2.117.022l3.499 3.653 3.585-3.718c.562-.583 1.491-.605 2.117-.021.583.562.605 1.49.021 2.118l-3.628 3.782 3.585 3.804Z"/></g></svg>