<svg width="134" height="42" fill="none" xmlns="http://www.w3.org/2000/svg"><g opacity=".6" fill="#30424F"><path opacity=".6" d="M36.257 30.562V11.688h12.458v2.777h-8.969v5.177h8.15v2.696h-8.15v5.447h8.968v2.777H36.258ZM50.814 30.563V17.188h3.08l.3 1.806a4.697 4.697 0 0 1 1.717-1.537c.727-.395 1.563-.593 2.508-.593 2.09 0 3.571.8 4.444 2.4a5.258 5.258 0 0 1 1.962-1.753 5.856 5.856 0 0 1 2.726-.647c1.763 0 3.117.522 4.062 1.564.945 1.043 1.418 2.57 1.418 4.584v7.55h-3.49v-7.227c0-1.15-.227-2.03-.681-2.642-.436-.611-1.118-.917-2.045-.917-.945 0-1.708.342-2.29 1.025-.563.683-.845 1.636-.845 2.858v6.902h-3.489v-7.226c0-1.15-.227-2.03-.681-2.642-.455-.611-1.154-.917-2.1-.917-.926 0-1.68.342-2.262 1.025-.563.683-.845 1.636-.845 2.858v6.902h-3.49ZM81.49 30.886c-1.364 0-2.572-.287-3.626-.863a6.282 6.282 0 0 1-2.481-2.426c-.6-1.043-.9-2.247-.9-3.614 0-1.384.291-2.615.873-3.693a6.423 6.423 0 0 1 2.453-2.508c1.054-.611 2.29-.917 3.707-.917 1.327 0 2.5.288 3.517.863a6.105 6.105 0 0 1 2.371 2.373c.582.988.873 2.094.873 3.316 0 .198-.01.405-.028.62 0 .216-.009.44-.027.675H77.945c.073 1.042.437 1.86 1.09 2.453.673.593 1.482.89 2.427.89.709 0 1.299-.153 1.772-.458.49-.324.854-.737 1.09-1.24h3.544a6.36 6.36 0 0 1-1.281 2.318 6.16 6.16 0 0 1-2.181 1.618c-.854.395-1.827.593-2.917.593Zm.026-11.217c-.854 0-1.608.243-2.262.728-.654.468-1.072 1.187-1.254 2.158h6.733c-.054-.881-.381-1.582-.981-2.104-.6-.52-1.345-.782-2.236-.782ZM89.788 30.563V17.188h3.41l.025 2.507a5.552 5.552 0 0 1 1.99-2.049c.854-.521 1.853-.782 2.998-.782v3.64h-.981c-.763 0-1.445.117-2.045.35-.6.234-1.072.639-1.417 1.214-.327.575-.49 1.375-.49 2.4v6.093h-3.49ZM104.137 30.886c-1.163 0-2.118-.18-2.863-.54-.744-.377-1.3-.871-1.663-1.482a3.884 3.884 0 0 1-.545-2.022c0-1.24.491-2.247 1.473-3.02.98-.773 2.453-1.16 4.416-1.16h3.435v-.323c0-.917-.264-1.591-.791-2.022-.527-.432-1.182-.648-1.963-.648-.709 0-1.326.171-1.853.513-.527.323-.855.809-.982 1.456h-3.407c.09-.97.417-1.816.981-2.535.581-.719 1.327-1.267 2.235-1.645.909-.395 1.926-.593 3.054-.593 1.926 0 3.443.477 4.551 1.43 1.109.952 1.663 2.3 1.663 4.044v8.224h-2.971l-.327-2.158c-.4.72-.963 1.313-1.69 1.78-.709.467-1.627.701-2.753.701Zm.79-2.696c1 0 1.772-.324 2.317-.97.564-.648.918-1.448 1.063-2.4h-2.971c-.927 0-1.59.17-1.99.512-.399.323-.599.728-.599 1.213 0 .521.2.926.599 1.213.4.288.927.432 1.581.432ZM114.087 30.562V14.644a3.492 3.492 0 0 1 3.489-3.495v19.413h-3.489ZM125.934 30.886c-1.273 0-2.408-.306-3.408-.917a6.598 6.598 0 0 1-2.372-2.507c-.581-1.06-.872-2.265-.872-3.613 0-1.349.291-2.544.872-3.587.582-1.06 1.372-1.887 2.372-2.48 1-.611 2.135-.917 3.408-.917 1.017 0 1.908.189 2.671.566a4.79 4.79 0 0 1 1.853 1.591v-4.378a3.493 3.493 0 0 1 3.49-3.495v19.413h-3.107l-.383-1.914c-.435.593-1.017 1.114-1.744 1.564-.709.45-1.635.674-2.78.674Zm.735-3.02c1.128 0 2.045-.368 2.754-1.105.726-.755 1.091-1.717 1.091-2.885 0-1.169-.365-2.122-1.091-2.859-.709-.755-1.626-1.132-2.754-1.132-1.108 0-2.026.368-2.753 1.105-.726.738-1.09 1.69-1.09 2.859 0 1.168.364 2.13 1.09 2.885.727.755 1.645 1.132 2.753 1.132ZM21.116 2.93l-.053-.222-2.936-.56-15.76 22.803 9.18 13.614 2.294.437 13.527-9.289L21.116 2.93Zm3.76 25.39-4.23.748-.201-20.85 4.43 20.102Zm-16.193.777 2.841 6.356-5.782-8.47 2.941 2.114Zm2.096-1.508 7.927-20.48-.129 21.965-7.798-1.485Zm6.79 3.413-4.306 4.783-2.253-6.033 6.56 1.25Zm6.265-.573-8.731 5.706 5.028-4.857 3.703-.849Zm-7.15-22.928L8.86 26.8l-3.638-2.247 11.46-17.052Z"/><path opacity=".6" fill-rule="evenodd" clip-rule="evenodd" d="m18.109 2.105 2.985.57.06.246 6.258 26.81-13.563 9.313-2.326-.443-9.204-13.65 15.79-22.846Zm.035.087L2.414 24.951 11.57 38.53l2.261.43 13.492-9.264-6.246-26.757-.047-.197-2.886-.55ZM10.832 27.56l7.705 1.468.128-21.704-7.833 20.236Zm7.837-20.464.076.015-.13 22.012-7.89-1.503 7.944-20.524Zm1.736 1.123.078-.01 4.44 20.144-4.317.763-.201-20.897Zm.082.377.197 20.427 4.144-.733-4.34-19.694ZM5.278 24.54l3.563 2.2 7.663-18.904L5.278 24.541ZM16.65 7.48l.069.037-7.84 19.342-3.712-2.293L16.65 7.479Zm3.5 23.835-4.722 4.562 8.2-5.36-3.478.798Zm3.674-.923.03.071-8.73 5.706-.049-.061 5.036-4.865 3.713-.851ZM5.71 27.005l.055-.054 2.95 2.12 2.845 6.366-.068.039-5.782-8.471Zm.19.14 5.41 7.924-2.658-5.946L5.9 27.145Zm5.049 2.555 6.697 1.276-4.397 4.883-2.3-6.159Zm.122.104 2.207 5.906 4.216-4.683-6.423-1.223Z"/></g></svg>