<svg width="184" height="31" fill="none" xmlns="http://www.w3.org/2000/svg"><g opacity=".6" fill="#30424F"><path opacity=".4" d="m32.303 11.738-12.427 8.825h-5.523L1.926 11.738 17.114 1.653l15.19 10.085Z"/><path opacity=".6" fill-rule="evenodd" clip-rule="evenodd" d="M16.412.604a1.27 1.27 0 0 1 1.404 0l15.19 10.085c.351.234.563.628.563 1.05v16.388c0 .669-.267 1.31-.742 1.783a2.537 2.537 0 0 1-1.79.738H3.191a2.537 2.537 0 0 1-1.79-.738 2.516 2.516 0 0 1-.741-1.783V11.738c0-.421.211-.815.563-1.049L16.413.604ZM3.192 12.413v15.714h27.845V12.413L17.114 3.168 3.191 12.413Z"/><path opacity=".6" fill-rule="evenodd" clip-rule="evenodd" d="M15.387 19.836a1.257 1.257 0 0 1-.304 1.757L3.047 30.06a1.27 1.27 0 0 1-1.765-.302 1.257 1.257 0 0 1 .304-1.757l12.037-8.469a1.269 1.269 0 0 1 1.764.303ZM18.843 19.836a1.269 1.269 0 0 1 1.764-.303l12.037 8.469c.57.402.707 1.188.303 1.757a1.27 1.27 0 0 1-1.764.302l-12.037-8.468a1.257 1.257 0 0 1-.303-1.757Z"/><path opacity=".6" fill-rule="evenodd" clip-rule="evenodd" d="M.895 11.006a1.27 1.27 0 0 1 1.765-.294l12.098 8.59h4.713l12.098-8.59a1.27 1.27 0 0 1 1.765.294 1.257 1.257 0 0 1-.296 1.759L20.611 21.59a1.27 1.27 0 0 1-.735.234h-5.523a1.27 1.27 0 0 1-.735-.234L1.19 12.765a1.257 1.257 0 0 1-.296-1.759Z"/><path opacity=".6" d="M47.19 26.002c-.339 0-.625-.115-.857-.346a1.158 1.158 0 0 1-.348-.854V8.872c0-.48.17-.89.509-1.227a1.64 1.64 0 0 1 1.232-.534h.348c.572 0 1.063.267 1.474.8l10.314 14.836V8.34c0-.338.116-.623.348-.854.232-.25.518-.374.857-.374.34 0 .625.125.857.374.25.231.376.516.376.854v15.929c0 .48-.18.89-.536 1.227-.34.338-.75.507-1.233.507h-.321c-.286 0-.554-.062-.804-.186a1.992 1.992 0 0 1-.616-.534L48.423 10.367v14.435c0 .338-.125.622-.375.854a1.167 1.167 0 0 1-.858.346ZM72.669 26.136c-1.376 0-2.581-.294-3.617-.88a6.1 6.1 0 0 1-2.41-2.482c-.555-1.085-.831-2.322-.831-3.709 0-1.388.276-2.615.83-3.682.572-1.085 1.375-1.921 2.411-2.508s2.241-.88 3.617-.88c1.357 0 2.554.293 3.59.88 1.035.587 1.839 1.423 2.41 2.508.572 1.067.858 2.294.858 3.682 0 1.387-.286 2.624-.858 3.709a6.1 6.1 0 0 1-2.41 2.481c-1.036.587-2.233.88-3.59.88Zm0-2.215c.732 0 1.428-.169 2.09-.507.678-.338 1.232-.871 1.66-1.6.447-.73.67-1.655.67-2.776 0-1.102-.223-2.019-.67-2.748-.428-.73-.982-1.254-1.66-1.574a4.527 4.527 0 0 0-2.09-.507c-.75 0-1.465.169-2.144.507-.66.32-1.205.845-1.634 1.574-.428.73-.642 1.646-.642 2.748 0 1.121.214 2.046.642 2.775.429.73.974 1.263 1.634 1.601a4.746 4.746 0 0 0 2.144.507ZM86.829 26.002a1.57 1.57 0 0 1-.965-.32 1.628 1.628 0 0 1-.59-.8l-3.803-11.1a1.433 1.433 0 0 1-.08-.454c0-.338.115-.622.347-.854.233-.23.518-.347.858-.347.25 0 .473.072.67.214a.913.913 0 0 1 .428.507L86.83 23.12l3.107-10.032c.09-.285.25-.516.482-.694a1.4 1.4 0 0 1 .83-.267c.304 0 .573.09.804.267.25.178.42.41.51.694l3.107 10.033 3.134-10.273a.937.937 0 0 1 .402-.507c.215-.142.447-.214.697-.214.339 0 .625.116.857.347.232.232.349.516.349.854 0 .142-.028.294-.081.454l-3.805 11.1c-.107.32-.302.587-.589.8a1.57 1.57 0 0 1-.964.32c-.357 0-.678-.107-.965-.32a1.786 1.786 0 0 1-.616-.827l-2.84-8.832-2.839 8.832c-.125.338-.33.614-.616.827a1.57 1.57 0 0 1-.965.32Z"/><path opacity=".6" fill-rule="evenodd" clip-rule="evenodd" d="m49.688 7.804.005.007 9.99 14.369V8.339c0-.382.133-.712.398-.977.265-.283.597-.428.985-.428.387 0 .719.144.984.425.283.264.427.594.427.98v15.93c0 .529-.2.983-.59 1.354a1.86 1.86 0 0 1-1.356.557h-.322c-.313 0-.608-.069-.883-.206l-.009-.004a2.17 2.17 0 0 1-.67-.581l-.004-.006L48.6 10.934v13.868c0 .386-.145.717-.43.981a1.345 1.345 0 0 1-.98.397c-.385 0-.717-.133-.984-.399a1.335 1.335 0 0 1-.4-.98V8.873c0-.526.188-.98.56-1.35.371-.39.828-.588 1.36-.588h.348c.637 0 1.177.301 1.614.87Zm-3.195-.159a1.64 1.64 0 0 1 1.232-.534h.349c.571 0 1.062.267 1.473.8l10.314 14.836V8.34c0-.338.116-.623.348-.854.232-.25.518-.374.857-.374.34 0 .625.125.858.374.25.231.375.516.375.854v15.93c0 .48-.179.889-.536 1.227-.34.338-.75.507-1.232.507h-.322c-.286 0-.553-.063-.803-.187a1.994 1.994 0 0 1-.617-.534L48.422 10.367v14.435c0 .338-.125.622-.375.854a1.167 1.167 0 0 1-.857.347c-.34 0-.625-.116-.858-.347a1.158 1.158 0 0 1-.348-.854V8.872c0-.48.17-.889.51-1.227Zm19.989 15.21c-.568-1.114-.85-2.378-.85-3.79 0-1.411.282-2.667.85-3.764.588-1.115 1.415-1.976 2.481-2.58 1.067-.605 2.304-.904 3.705-.904 1.384 0 2.611.3 3.678.904 1.066.604 1.893 1.465 2.48 2.579.587 1.096.878 2.353.878 3.765s-.291 2.678-.878 3.791v.001a6.278 6.278 0 0 1-2.48 2.552c-1.067.605-2.294.904-3.678.904-1.401 0-2.638-.3-3.705-.904a6.277 6.277 0 0 1-2.48-2.552l-.001-.003Zm12.187-7.472c-.572-1.085-1.375-1.921-2.411-2.508s-2.233-.88-3.59-.88c-1.375 0-2.58.293-3.617.88-1.035.587-1.84 1.423-2.41 2.508-.554 1.067-.831 2.295-.831 3.682s.277 2.624.83 3.709a6.1 6.1 0 0 0 2.411 2.481c1.036.587 2.242.88 3.617.88 1.357 0 2.554-.293 3.59-.88a6.1 6.1 0 0 0 2.41-2.481c.572-1.085.858-2.322.858-3.709s-.286-2.615-.857-3.682Zm-3.993 7.873h.002c.644-.321 1.173-.829 1.587-1.532l.001-.003c.425-.694.644-1.585.644-2.683 0-1.08-.218-1.961-.644-2.656l-.001-.002c-.413-.703-.942-1.2-1.584-1.504l-.005-.002a4.35 4.35 0 0 0-2.008-.488c-.722 0-1.41.163-2.064.489h-.001c-.625.303-1.145.8-1.559 1.505-.408.695-.618 1.578-.618 2.658 0 1.1.21 1.991.618 2.686.414.704.935 1.212 1.561 1.532.654.326 1.341.488 2.063.488a4.35 4.35 0 0 0 2.008-.488Zm-4.151.158c-.661-.338-1.206-.871-1.634-1.6-.429-.73-.643-1.655-.643-2.776 0-1.102.214-2.019.643-2.748.428-.73.973-1.254 1.634-1.574a4.747 4.747 0 0 1 2.143-.507c.732 0 1.429.169 2.09.507.678.32 1.232.845 1.66 1.574.447.73.67 1.646.67 2.748 0 1.121-.223 2.046-.67 2.775-.428.73-.982 1.263-1.66 1.601a4.53 4.53 0 0 1-2.09.507c-.75 0-1.465-.169-2.143-.507Zm30.501-9.632-3.804 11.1c-.107.32-.303.587-.589.8-.287.214-.608.32-.965.32a1.57 1.57 0 0 1-.964-.32 1.773 1.773 0 0 1-.616-.827l-2.84-8.832-2.84 8.832c-.125.338-.33.614-.616.827-.286.214-.607.32-.964.32s-.679-.106-.965-.32a1.629 1.629 0 0 1-.59-.8l-3.803-11.1a1.43 1.43 0 0 1-.08-.454c0-.338.116-.622.348-.853.232-.232.518-.347.857-.347.25 0 .473.07.67.213a.913.913 0 0 1 .428.507l3.135 10.273 3.107-10.033c.09-.284.25-.516.483-.693a1.4 1.4 0 0 1 .83-.267c.303 0 .572.089.803.267.251.177.42.409.51.693l3.107 10.033 3.134-10.273a.938.938 0 0 1 .402-.507c.215-.142.447-.213.697-.213.34 0 .625.115.857.347.232.23.349.515.349.853 0 .143-.027.294-.081.454Zm-1.919-1.59c.242-.16.508-.242.794-.242.384 0 .716.134.983.4.267.265.4.595.4.978 0 .165-.031.335-.089.51v.001l-3.804 11.099a1.81 1.81 0 0 1-.652.886 1.748 1.748 0 0 1-1.07.356 1.75 1.75 0 0 1-1.072-.356 1.955 1.955 0 0 1-.676-.908l-.003-.007-2.67-8.304-2.67 8.304c0 .003-.002.005-.003.008-.136.37-.362.673-.676.907a1.75 1.75 0 0 1-1.071.356 1.75 1.75 0 0 1-1.072-.356 1.807 1.807 0 0 1-.65-.885l-.001-.001-3.804-11.1a1.606 1.606 0 0 1-.09-.51c0-.383.134-.713.4-.979.268-.265.6-.399.984-.399.284 0 .541.08.767.243.244.143.415.343.5.599l.002.005 2.965 9.718 2.936-9.479c.1-.32.282-.582.544-.782l.005-.004c.28-.199.593-.3.934-.3.34 0 .646.1.91.302.279.2.472.462.573.783v.001l2.936 9.48 2.966-9.724a1.12 1.12 0 0 1 .474-.6Z"/><path opacity=".6" d="M106.633 26.002a1.17 1.17 0 0 1-.858-.346 1.162 1.162 0 0 1-.348-.854V8.339c0-.338.117-.623.348-.854.233-.25.518-.374.858-.374.34 0 .625.125.857.374.25.231.375.516.375.854v16.463c0 .338-.125.622-.375.854a1.165 1.165 0 0 1-.857.346ZM113.528 26.002c-.339 0-.625-.115-.857-.346a1.16 1.16 0 0 1-.349-.854V13.355c0-.338.117-.623.349-.854.232-.249.518-.373.857-.373.34 0 .625.124.858.373.25.231.374.516.374.854v1.094c.679-.747 1.412-1.343 2.197-1.788.787-.444 1.715-.667 2.787-.667.982 0 1.83.232 2.545.694a4.397 4.397 0 0 1 1.66 1.894c.393.8.59 1.681.59 2.642v7.578c0 .338-.126.622-.376.854a1.165 1.165 0 0 1-.856.346c-.34 0-.626-.115-.858-.346a1.158 1.158 0 0 1-.348-.854V17.49c0-2.17-.982-3.255-2.947-3.255-.893 0-1.697.23-2.411.693-.697.463-1.358 1.085-1.983 1.868v8.005c0 .338-.124.622-.374.854a1.17 1.17 0 0 1-.858.346Z"/><path opacity=".6" fill-rule="evenodd" clip-rule="evenodd" d="M106.633 26.18c-.384 0-.717-.133-.983-.399a1.338 1.338 0 0 1-.4-.98V8.34c0-.382.133-.712.397-.977.266-.283.598-.428.986-.428.387 0 .719.144.983.425.283.264.428.594.428.98v16.463c0 .386-.146.717-.431.981a1.342 1.342 0 0 1-.98.397Zm.857-.524c.251-.232.375-.516.375-.854V8.339c0-.338-.124-.623-.375-.854a1.124 1.124 0 0 0-.857-.374c-.34 0-.625.125-.857.374a1.16 1.16 0 0 0-.349.854v16.463c0 .338.117.622.349.854.232.23.517.347.857.347.34 0 .625-.116.857-.347Zm6.038.524c-.384 0-.716-.133-.983-.399a1.334 1.334 0 0 1-.4-.98V13.356c0-.382.133-.712.398-.977.265-.283.598-.428.985-.428s.719.144.983.426c.284.264.428.594.428.98v.647a8.861 8.861 0 0 1 1.93-1.496c.818-.462 1.778-.69 2.875-.69 1.01 0 1.894.238 2.641.722a4.58 4.58 0 0 1 1.725 1.967c.405.826.607 1.733.607 2.718v7.578c0 .386-.145.717-.43.981a1.344 1.344 0 0 1-.98.397c-.385 0-.717-.133-.984-.399a1.338 1.338 0 0 1-.4-.98v-7.31c0-1.062-.24-1.826-.691-2.323-.447-.494-1.129-.755-2.078-.755-.859 0-1.629.222-2.313.664-.664.441-1.298 1.034-1.902 1.782v7.943c0 .386-.145.717-.43.981a1.345 1.345 0 0 1-.981.397Zm.858-.524c.25-.232.375-.516.375-.854v-8.005c.624-.783 1.285-1.405 1.982-1.868a4.342 4.342 0 0 1 2.411-.693c1.965 0 2.947 1.085 2.947 3.255v7.31c0 .339.116.623.348.855.232.23.518.347.858.347.339 0 .625-.116.856-.347.251-.232.376-.516.376-.854v-7.578c0-.96-.197-1.841-.59-2.642a4.39 4.39 0 0 0-1.66-1.894c-.715-.463-1.563-.694-2.545-.694-1.072 0-2 .223-2.787.667a8.744 8.744 0 0 0-2.018 1.597c-.06.062-.119.126-.178.191v-1.094c0-.338-.125-.623-.375-.854a1.128 1.128 0 0 0-.858-.373c-.339 0-.624.124-.857.373a1.159 1.159 0 0 0-.348.854v11.447c0 .338.116.622.348.854.233.23.518.347.857.347.34 0 .625-.116.858-.347Z"/><path opacity=".6" d="M132.818 26.002c-.339 0-.625-.115-.857-.347a1.156 1.156 0 0 1-.349-.853V9.512h-5.465a1.095 1.095 0 0 1-1.125-1.12c0-.32.107-.587.321-.8.215-.232.483-.347.804-.347h13.341c.322 0 .59.115.804.346.233.214.348.48.348.801 0 .32-.115.587-.348.8-.214.214-.482.32-.804.32h-5.438v15.29c0 .338-.125.622-.374.853a1.171 1.171 0 0 1-.858.347ZM147.497 26.136c-2.179 0-3.885-.614-5.118-1.841-1.213-1.246-1.821-2.989-1.821-5.23 0-1.263.232-2.428.696-3.496a5.946 5.946 0 0 1 2.143-2.588c.965-.658 2.153-.987 3.564-.987 1.321 0 2.464.311 3.428.934a5.843 5.843 0 0 1 2.197 2.455c.5 1.014.75 2.126.75 3.335 0 .338-.115.623-.348.854-.214.231-.509.347-.884.347h-9.081c.143 1.245.607 2.214 1.392 2.908.787.694 1.885 1.04 3.296 1.04.75 0 1.401-.07 1.955-.213a8.134 8.134 0 0 0 1.662-.613 1.06 1.06 0 0 1 .481-.107c.287 0 .537.098.751.293a.968.968 0 0 1 .321.747c0 .392-.232.72-.697.988a9.72 9.72 0 0 1-2.062.88c-.679.196-1.554.294-2.625.294Zm3.429-8.192c-.054-.871-.286-1.6-.697-2.188-.393-.587-.884-1.014-1.474-1.28a4.083 4.083 0 0 0-1.794-.427c-.608 0-1.206.142-1.795.427-.59.266-1.081.693-1.474 1.28-.393.587-.616 1.317-.669 2.188h7.903ZM162.884 26.136c-1.285 0-2.474-.285-3.563-.854a6.685 6.685 0 0 1-2.625-2.455c-.643-1.067-.964-2.321-.964-3.762 0-1.44.321-2.695.964-3.762a6.685 6.685 0 0 1 2.625-2.455c1.089-.57 2.278-.854 3.563-.854.947 0 1.759.125 2.439.374a8.73 8.73 0 0 1 1.928.907c.357.231.536.542.536.934 0 .267-.107.516-.321.747a.92.92 0 0 1-.697.32c-.197 0-.393-.053-.59-.16-.589-.302-1.098-.516-1.526-.64-.411-.143-.93-.214-1.554-.214-1.536 0-2.742.445-3.617 1.334-.875.872-1.312 2.028-1.312 3.469 0 1.44.437 2.606 1.312 3.495.875.872 2.081 1.308 3.617 1.308.624 0 1.143-.063 1.554-.187.428-.142.937-.365 1.526-.667.197-.107.393-.16.59-.16.267 0 .5.115.697.347.214.213.321.453.321.72 0 .391-.179.703-.536.934a9.689 9.689 0 0 1-1.928.934c-.68.231-1.492.347-2.439.347ZM172.052 26.002a1.17 1.17 0 0 1-.858-.347 1.163 1.163 0 0 1-.348-.854V7.486c0-.338.117-.623.348-.854.233-.25.518-.374.858-.374.34 0 .625.125.857.374.25.231.375.516.375.854v6.964c.678-.747 1.411-1.343 2.197-1.788.786-.445 1.715-.667 2.786-.667.982 0 1.831.231 2.545.694a4.398 4.398 0 0 1 1.661 1.894c.393.8.59 1.681.59 2.642v7.578c0 .338-.126.622-.376.853a1.167 1.167 0 0 1-.857.347c-.339 0-.625-.115-.857-.347a1.156 1.156 0 0 1-.349-.854v-7.31c0-2.17-.982-3.256-2.947-3.256-.892 0-1.696.232-2.41.694-.697.463-1.358 1.085-1.983 1.868v8.005c0 .338-.125.622-.375.853a1.166 1.166 0 0 1-.857.347Z"/><path opacity=".6" fill-rule="evenodd" clip-rule="evenodd" d="M142.251 24.418c-1.255-1.287-1.872-3.08-1.872-5.353 0-1.285.236-2.475.711-3.566a6.123 6.123 0 0 1 2.207-2.664c.999-.682 2.223-1.018 3.663-1.018 1.35 0 2.528.318 3.525.961a6.038 6.038 0 0 1 2.261 2.527c.512 1.04.768 2.179.768 3.413 0 .382-.133.712-.399.977-.253.272-.598.401-1.012.401h-8.879c.164 1.115.604 1.976 1.309 2.598.744.657 1.795.996 3.177.996.74 0 1.376-.07 1.911-.207h.001c.56-.14 1.101-.34 1.625-.601.17-.085.359-.126.562-.126.331 0 .624.116.87.34.253.232.38.529.38.878 0 .477-.29.856-.787 1.141l-.001.001a9.879 9.879 0 0 1-2.1.896c-.702.203-1.595.301-2.675.301-2.214 0-3.97-.624-5.243-1.893l-.002-.002Zm.794-4.322c-.008-.058-.017-.118-.023-.177h9.081c.375 0 .67-.116.884-.347.233-.231.349-.516.349-.854 0-1.21-.25-2.321-.751-3.335a5.847 5.847 0 0 0-2.196-2.455c-.965-.623-2.108-.934-3.429-.934-1.411 0-2.599.33-3.563.987a5.949 5.949 0 0 0-2.144 2.588c-.464 1.068-.695 2.233-.695 3.496 0 2.241.607 3.984 1.82 5.23 1.234 1.227 2.939 1.84 5.118 1.84 1.072 0 1.947-.097 2.625-.293a9.748 9.748 0 0 0 2.063-.88c.465-.267.696-.596.696-.988a.968.968 0 0 0-.321-.747 1.077 1.077 0 0 0-.75-.293c-.179 0-.339.035-.482.107a8.112 8.112 0 0 1-1.662.613c-.553.143-1.204.214-1.955.214-1.411 0-2.509-.347-3.295-1.04-.749-.661-1.205-1.572-1.37-2.732Zm7.035-4.241c-.376-.563-.842-.966-1.399-1.218l-.003-.002a3.918 3.918 0 0 0-1.718-.41c-.578 0-1.151.136-1.717.41l-.005.002c-.555.252-1.022.655-1.399 1.218-.343.513-.554 1.148-.625 1.912h7.519c-.073-.762-.291-1.396-.651-1.91l-.002-.002Zm.831 1.912c.006.058.01.117.014.177h-7.903l.013-.177c.072-.794.291-1.464.656-2.01.394-.588.884-1.015 1.474-1.281a4.088 4.088 0 0 1 1.795-.427 4.08 4.08 0 0 1 1.794.427c.59.266 1.082.693 1.474 1.28.383.547.611 1.217.683 2.011Zm5.633 5.153-.001-.002c-.662-1.099-.99-2.385-.99-3.853 0-1.468.328-2.755.99-3.854l.001-.001a6.853 6.853 0 0 1 2.694-2.52c1.116-.582 2.332-.873 3.646-.873.96 0 1.793.126 2.496.383a8.898 8.898 0 0 1 1.966.925l.002.001c.402.26.617.626.617 1.083 0 .319-.13.61-.369.867a1.097 1.097 0 0 1-.828.377c-.23 0-.454-.062-.673-.18-.583-.3-1.08-.507-1.493-.627l-.004-.002h-.005c-.385-.135-.881-.205-1.495-.205-1.5 0-2.655.433-3.489 1.281l-.001.002c-.837.832-1.261 1.94-1.261 3.343 0 1.402.424 2.52 1.261 3.37.834.83 1.99 1.255 3.49 1.255.614 0 1.111-.06 1.5-.178a11 11 0 0 0 1.497-.655c.219-.118.443-.18.673-.18.325 0 .603.142.828.404.239.24.369.522.369.84 0 .457-.215.822-.617 1.083h-.002a9.83 9.83 0 0 1-1.965.952h-.002c-.702.24-1.535.357-2.495.357-1.314 0-2.53-.29-3.646-.874a6.853 6.853 0 0 1-2.694-2.519Zm10.921.28c-.197-.23-.429-.346-.697-.346a1.22 1.22 0 0 0-.589.16c-.59.302-1.099.525-1.527.667-.411.124-.929.187-1.554.187-1.536 0-2.742-.436-3.617-1.308-.875-.89-1.312-2.054-1.312-3.495 0-1.44.437-2.597 1.312-3.469.875-.89 2.081-1.334 3.617-1.334.625 0 1.143.071 1.554.214.428.124.937.338 1.527.64.196.107.392.16.589.16.268 0 .5-.107.697-.32.214-.231.321-.48.321-.747 0-.392-.178-.703-.535-.934a8.738 8.738 0 0 0-1.929-.907c-.68-.25-1.491-.374-2.438-.374-1.286 0-2.474.285-3.564.854a6.675 6.675 0 0 0-2.624 2.455c-.644 1.067-.965 2.321-.965 3.762 0 1.44.321 2.695.965 3.762a6.675 6.675 0 0 0 2.624 2.455c1.09.57 2.278.854 3.564.854.947 0 1.758-.116 2.438-.347a9.697 9.697 0 0 0 1.929-.934c.357-.231.535-.543.535-.934 0-.267-.107-.507-.321-.72Zm-34.648 2.98c-.385 0-.716-.133-.983-.4a1.334 1.334 0 0 1-.4-.978V9.69h-5.287a1.271 1.271 0 0 1-1.303-1.298c0-.363.122-.675.37-.923a1.23 1.23 0 0 1 .933-.402h13.341c.368 0 .682.134.93.399.265.247.4.56.4.926 0 .367-.136.681-.403.928-.25.248-.563.37-.927.37h-5.26v15.112c0 .386-.145.717-.43.981a1.346 1.346 0 0 1-.981.397Zm.858-.524c.25-.232.375-.516.375-.854V9.512h5.438c.321 0 .589-.106.803-.32a1.04 1.04 0 0 0 .349-.8c0-.32-.116-.587-.349-.8a1.049 1.049 0 0 0-.803-.347h-13.341c-.322 0-.589.115-.804.347-.215.213-.322.48-.322.8a1.094 1.094 0 0 0 1.126 1.12h5.464v15.29c0 .338.117.622.349.854.233.23.518.346.857.346.34 0 .625-.115.858-.346Zm38.376.524c-.384 0-.717-.133-.983-.4a1.334 1.334 0 0 1-.4-.978V7.485c0-.382.133-.712.398-.977.265-.283.597-.428.985-.428.387 0 .719.144.983.425.283.264.428.594.428.98v6.518a8.82 8.82 0 0 1 1.93-1.496c.818-.463 1.777-.69 2.874-.69 1.011 0 1.894.238 2.642.722a4.577 4.577 0 0 1 1.724 1.967c.406.826.607 1.733.607 2.718v7.578c0 .386-.144.717-.429.981a1.344 1.344 0 0 1-.98.397c-.386 0-.717-.133-.984-.4a1.334 1.334 0 0 1-.401-.978V17.49c0-1.062-.24-1.826-.691-2.323-.446-.494-1.128-.755-2.077-.755-.86 0-1.629.222-2.313.664-.665.441-1.299 1.034-1.902 1.782v7.943c0 .386-.146.717-.43.981a1.345 1.345 0 0 1-.981.397Zm.858-.524c.25-.232.374-.516.374-.854v-8.005c.625-.783 1.286-1.405 1.983-1.868.714-.462 1.518-.694 2.411-.694 1.965 0 2.947 1.085 2.947 3.256v7.31c0 .339.115.623.348.855.232.23.518.346.858.346.338 0 .624-.115.856-.346.25-.232.376-.516.376-.854v-7.578c0-.96-.197-1.841-.59-2.642a4.403 4.403 0 0 0-1.66-1.894c-.715-.463-1.564-.694-2.546-.694-1.071 0-2 .222-2.786.667a8.744 8.744 0 0 0-2.018 1.597c-.061.062-.119.126-.179.19V7.486c0-.338-.124-.623-.374-.854a1.128 1.128 0 0 0-.858-.374c-.34 0-.625.125-.857.374a1.16 1.16 0 0 0-.349.854v17.317c0 .338.117.622.349.854.232.23.517.346.857.346.34 0 .625-.115.858-.346Z"/></g></svg>