<svg width="127" height="36" fill="none" xmlns="http://www.w3.org/2000/svg"><g opacity=".6" fill="#30424F"><path opacity=".6" d="M58.303 24.007c.197 0 .367.077.51.23l1.425 1.556a7.818 7.818 0 0 1-2.916 2.26c-1.147.523-2.527.785-4.14.785-1.443 0-2.742-.248-3.898-.744a8.594 8.594 0 0 1-2.943-2.07c-.816-.885-1.443-1.94-1.882-3.167-.43-1.227-.645-2.567-.645-4.02 0-1.47.242-2.814.726-4.032.484-1.226 1.165-2.282 2.043-3.166a9.173 9.173 0 0 1 3.145-2.057c1.227-.496 2.58-.744 4.059-.744 1.443 0 2.701.234 3.777.704 1.084.46 2.011 1.073 2.782 1.84l-1.21 1.691a1.063 1.063 0 0 1-.282.284c-.108.082-.26.122-.457.122-.206 0-.417-.08-.632-.243a7.829 7.829 0 0 0-.82-.528 6.62 6.62 0 0 0-1.263-.528c-.502-.162-1.143-.243-1.922-.243a6.44 6.44 0 0 0-2.527.487 5.605 5.605 0 0 0-1.975 1.367c-.547.595-.977 1.321-1.29 2.178-.305.848-.458 1.804-.458 2.869 0 1.1.153 2.08.457 2.936.314.857.735 1.579 1.264 2.165a5.444 5.444 0 0 0 1.868 1.354c.717.306 1.487.46 2.312.46.492 0 .936-.027 1.33-.082.403-.054.77-.14 1.102-.257.34-.117.659-.266.955-.446.304-.19.604-.42.9-.69.09-.082.184-.145.282-.19a.66.66 0 0 1 .323-.081ZM73.058 28.621h-1.492c-.314 0-.56-.045-.74-.135-.179-.1-.313-.293-.403-.582l-.295-.988a11.7 11.7 0 0 1-1.035.839 6.271 6.271 0 0 1-1.035.596c-.359.162-.74.284-1.143.365a6.827 6.827 0 0 1-1.344.122c-.582 0-1.12-.077-1.612-.23a3.615 3.615 0 0 1-1.277-.718 3.264 3.264 0 0 1-.82-1.177c-.197-.469-.296-1.015-.296-1.637 0-.524.135-1.038.403-1.543.278-.514.735-.974 1.371-1.38.636-.415 1.483-.758 2.54-1.028 1.058-.271 2.37-.424 3.939-.46v-.813c0-.929-.198-1.614-.592-2.056-.385-.451-.95-.677-1.693-.677-.538 0-.986.063-1.344.19a5.09 5.09 0 0 0-.941.433c-.26.153-.502.293-.726.42a1.48 1.48 0 0 1-.74.189.956.956 0 0 1-.577-.176 1.382 1.382 0 0 1-.39-.433l-.605-1.07c1.586-1.46 3.5-2.192 5.74-2.192.806 0 1.523.136 2.15.406a4.458 4.458 0 0 1 1.613 1.11c.439.47.77 1.033.994 1.691.233.659.35 1.38.35 2.165v8.77Zm-6.452-2.084c.34 0 .654-.031.941-.095.287-.063.556-.157.807-.284.26-.126.506-.28.739-.46.242-.19.484-.41.725-.663v-2.34c-.967.044-1.778.13-2.432.256-.645.118-1.165.271-1.56.46-.393.19-.676.41-.846.663a1.504 1.504 0 0 0-.242.826c0 .586.17 1.006.51 1.258.35.253.803.38 1.358.38ZM75.784 28.621V14.738h1.95c.34 0 .577.063.712.189.134.126.224.343.269.65l.201 1.678c.493-.858 1.07-1.534 1.734-2.03a3.631 3.631 0 0 1 2.231-.745c.681 0 1.246.158 1.694.474l-.43 2.503c-.027.163-.086.28-.175.352a.62.62 0 0 1-.364.095c-.133 0-.317-.032-.55-.095-.233-.063-.543-.095-.927-.095-.69 0-1.282.195-1.775.582-.493.38-.91.939-1.25 1.678v8.647h-3.32ZM95.924 28.621c-.43 0-.712-.203-.847-.609l-.269-1.34a8.26 8.26 0 0 1-.9.88 5.636 5.636 0 0 1-1.022.677 4.9 4.9 0 0 1-1.169.433c-.413.108-.86.162-1.344.162a4.536 4.536 0 0 1-2.07-.473 4.712 4.712 0 0 1-1.626-1.367c-.448-.605-.798-1.349-1.049-2.233-.242-.884-.363-1.894-.363-3.03a9.51 9.51 0 0 1 .417-2.87c.278-.884.676-1.65 1.197-2.3a5.508 5.508 0 0 1 1.868-1.515c.725-.37 1.54-.555 2.446-.555.77 0 1.43.126 1.976.379a5.06 5.06 0 0 1 1.464.987V8.513h3.32v20.108h-2.03Zm-4.422-2.449c.69 0 1.277-.144 1.76-.433.484-.289.941-.7 1.371-1.231v-6.225c-.376-.46-.788-.785-1.236-.974a3.558 3.558 0 0 0-1.425-.284c-.502 0-.959.094-1.37.284-.404.19-.75.478-1.035.866-.279.379-.494.866-.646 1.461-.152.587-.228 1.281-.228 2.084 0 .812.062 1.502.188 2.07.134.56.322 1.02.564 1.38.242.353.538.61.887.772.35.153.74.23 1.17.23ZM106.711 14.521c.869 0 1.667.14 2.393.42.734.28 1.366.69 1.894 1.23.53.533.941 1.192 1.237 1.977.296.775.444 1.664.444 2.665 0 .253-.013.465-.04.636a.918.918 0 0 1-.122.393.5.5 0 0 1-.228.203 1.108 1.108 0 0 1-.377.054h-8.521c.099 1.425.48 2.472 1.143 3.14.663.667 1.541 1 2.634 1 .538 0 1-.063 1.384-.189a6.11 6.11 0 0 0 1.022-.42c.296-.153.551-.293.766-.419.224-.126.439-.19.645-.19.135 0 .251.028.35.082.098.054.184.13.255.23l.968 1.218a5.68 5.68 0 0 1-1.236 1.096 7.328 7.328 0 0 1-1.439.703 7.945 7.945 0 0 1-1.518.366c-.512.072-1.009.108-1.492.108-.959 0-1.85-.158-2.675-.474a6.106 6.106 0 0 1-2.151-1.42c-.609-.632-1.088-1.408-1.438-2.328-.35-.929-.523-2.003-.523-3.22 0-.948.151-1.836.456-2.666a6.403 6.403 0 0 1 1.304-2.179 6.212 6.212 0 0 1 2.083-1.475c.824-.36 1.752-.541 2.782-.541Zm.067 2.395c-.967 0-1.724.275-2.271.826-.546.55-.896 1.33-1.048 2.34h6.236a4.14 4.14 0 0 0-.174-1.217 2.833 2.833 0 0 0-.539-1.015 2.472 2.472 0 0 0-.913-.677c-.367-.171-.797-.257-1.291-.257ZM124.538 28.621c-.43 0-.713-.203-.846-.609l-.269-1.34a8.357 8.357 0 0 1-.901.88 5.612 5.612 0 0 1-1.021.677c-.359.19-.748.334-1.17.433-.412.108-.86.162-1.344.162a4.53 4.53 0 0 1-2.069-.473 4.703 4.703 0 0 1-1.627-1.367c-.448-.605-.797-1.349-1.048-2.233-.242-.884-.363-1.894-.363-3.03 0-1.03.139-1.986.417-2.87.277-.884.676-1.65 1.195-2.3a5.528 5.528 0 0 1 1.869-1.515c.726-.37 1.541-.555 2.446-.555.771 0 1.429.126 1.976.379a5.056 5.056 0 0 1 1.465.987V8.513h3.32v20.108h-2.03Zm-4.422-2.449c.69 0 1.277-.144 1.761-.433.484-.289.941-.7 1.371-1.231v-6.225c-.377-.46-.789-.785-1.237-.974a3.557 3.557 0 0 0-1.424-.284c-.502 0-.959.094-1.371.284-.404.19-.749.478-1.035.866-.278.379-.493.866-.646 1.461-.151.587-.228 1.281-.228 2.084 0 .812.063 1.502.188 2.07.135.56.323 1.02.565 1.38.242.353.537.61.887.772.349.153.739.23 1.169.23Z"/><path opacity=".6" fill-rule="evenodd" clip-rule="evenodd" d="M6.35 6.809c.599-2.065 2.747-3.25 4.797-2.646l12.923 3.8c2.05.604 3.227 2.767 2.628 4.831l-5.786 19.94c-.6 2.064-2.747 3.249-4.798 2.646L3.19 31.578c-2.05-.603-3.227-2.765-2.628-4.83L6.35 6.808Zm3.963.23a.892.892 0 0 0-1.107.61l-5.787 19.94a.9.9 0 0 0 .607 1.114l12.922 3.801a.892.892 0 0 0 1.107-.61l5.787-19.94a.9.9 0 0 0-.607-1.115l-12.922-3.8Z"/><path opacity=".6" fill-rule="evenodd" clip-rule="evenodd" d="M14.422 3.303c.6-2.065 2.747-3.25 4.798-2.646l12.923 3.801c2.05.603 3.227 2.766 2.628 4.83l-5.786 19.94c-.6 2.064-2.748 3.25-4.798 2.646l-12.923-3.801c-2.05-.604-3.227-2.766-2.628-4.83l5.786-19.94Zm3.964.23a.892.892 0 0 0-1.107.61l-5.787 19.94a.9.9 0 0 0 .607 1.114l12.922 3.801a.892.892 0 0 0 1.107-.61l5.787-19.94a.9.9 0 0 0-.607-1.114L18.386 3.532Z"/></g></svg>