<svg width="153" height="33" fill="none" xmlns="http://www.w3.org/2000/svg"><g opacity=".6"><path opacity=".6" d="M50.49 26.562c-1.971 0-3.697-.437-5.18-1.31-1.463-.873-2.617-2.079-3.462-3.616-.825-1.557-1.238-3.35-1.238-5.382 0-2.03.413-3.815 1.238-5.353.845-1.556 1.999-2.771 3.462-3.644 1.483-.874 3.209-1.31 5.18-1.31 1.95 0 3.667.436 5.15 1.31 1.482.873 2.636 2.088 3.462 3.644.825 1.538 1.238 3.322 1.238 5.353 0 2.031-.413 3.825-1.238 5.382a9.12 9.12 0 0 1-3.462 3.616c-1.483.873-3.2 1.31-5.15 1.31Zm0-3.275c1.875 0 3.367-.626 4.474-1.88 1.126-1.252 1.69-2.97 1.69-5.153 0-2.183-.564-3.9-1.69-5.154-1.107-1.252-2.599-1.879-4.475-1.879-1.876 0-3.377.627-4.503 1.88-1.126 1.252-1.689 2.97-1.689 5.153 0 2.183.563 3.901 1.689 5.154 1.126 1.253 2.627 1.88 4.503 1.88ZM63.437 32.484V12.097h3.208l.395 2.022c.45-.627 1.04-1.177 1.773-1.652.75-.474 1.716-.712 2.899-.712 1.313 0 2.486.323 3.518.968 1.032.646 1.848 1.529 2.449 2.648.6 1.12.9 2.392.9 3.816s-.3 2.695-.9 3.815a6.959 6.959 0 0 1-2.45 2.62c-1.031.626-2.204.94-3.517.94-1.051 0-1.97-.2-2.759-.598a4.99 4.99 0 0 1-1.913-1.68v8.2h-3.603Zm7.515-9.111c1.144 0 2.092-.39 2.843-1.168.75-.778 1.125-1.784 1.125-3.018 0-1.234-.375-2.25-1.126-3.047-.75-.797-1.698-1.196-2.842-1.196-1.164 0-2.12.399-2.871 1.196-.732.779-1.098 1.785-1.098 3.018 0 1.234.366 2.25 1.098 3.047.75.778 1.707 1.168 2.87 1.168ZM87.468 26.22c-1.463 0-2.636-.36-3.518-1.082-.882-.721-1.323-2.003-1.323-3.844v-6.15h-2.392v-3.047h2.392l.422-3.787h3.18v3.787h3.773v3.047H86.23v6.179c0 .683.14 1.157.422 1.423.3.247.807.37 1.52.37h1.745v3.104h-2.45ZM95.037 9.904c-.657 0-1.202-.199-1.633-.598-.412-.398-.62-.901-.62-1.509 0-.607.208-1.1.62-1.48.431-.399.976-.598 1.633-.598.656 0 1.191.2 1.604.598.432.38.647.873.647 1.48 0 .608-.215 1.11-.647 1.51-.413.398-.948.597-1.604.597ZM93.236 26.22V12.097h3.602V26.22h-3.602ZM100.598 26.22V12.097h3.181l.309 1.908a4.884 4.884 0 0 1 1.773-1.623c.751-.418 1.614-.627 2.59-.627 2.157 0 3.687.845 4.588 2.534a5.466 5.466 0 0 1 2.027-1.85 5.933 5.933 0 0 1 2.814-.684c1.82 0 3.218.55 4.194 1.652.976 1.1 1.463 2.714 1.463 4.84v7.973h-3.603v-7.631c0-1.215-.234-2.145-.703-2.79-.451-.646-1.154-.969-2.111-.969-.976 0-1.764.361-2.365 1.082-.581.722-.872 1.728-.872 3.019v7.289h-3.602v-7.631c0-1.215-.236-2.145-.704-2.79-.47-.646-1.192-.969-2.168-.969-.956 0-1.735.361-2.336 1.082-.581.722-.872 1.728-.872 3.019v7.289h-3.603ZM133.741 26.562c-1.407 0-2.655-.304-3.743-.912a6.552 6.552 0 0 1-2.562-2.562c-.619-1.101-.929-2.373-.929-3.816 0-1.461.3-2.762.901-3.9.619-1.14 1.464-2.022 2.533-2.649 1.088-.645 2.365-.968 3.828-.968 1.369 0 2.58.304 3.631.911a6.378 6.378 0 0 1 2.448 2.506c.601 1.044.902 2.212.902 3.502 0 .21-.01.428-.029.655 0 .228-.009.465-.028.712h-10.611c.075 1.101.45 1.965 1.126 2.591.694.627 1.529.94 2.504.94.732 0 1.342-.162 1.83-.484a3.137 3.137 0 0 0 1.126-1.31h3.659a6.773 6.773 0 0 1-1.323 2.449 6.362 6.362 0 0 1-2.252 1.708c-.882.418-1.886.627-3.011.627Zm.028-11.845c-.882 0-1.661.256-2.336.768-.676.494-1.108 1.253-1.295 2.278h6.952c-.056-.93-.394-1.67-1.013-2.22-.619-.551-1.389-.826-2.308-.826ZM143.779 26.22V12.097h3.209l.338 2.648a5.807 5.807 0 0 1 2.054-2.164c.883-.55 1.914-.826 3.096-.826V15.6h-1.013c-.788 0-1.491.124-2.11.37-.62.247-1.108.674-1.464 1.282-.338.607-.507 1.452-.507 2.534v6.435h-3.603Z" fill="#30424F"/><path opacity=".6" d="M30.334 8.16 11.45 27.51a.193.193 0 0 1-.332-.136l.123-9.503c0-.07.04-.134.102-.167l18.762-9.848c.194-.102.382.147.229.303Z" fill="#414347" fill-opacity=".8"/><path opacity=".6" d="m31.242 6.61-.249.352L9.55 18.338l-7.83-5.097c-.182-.124-.132-.409.09-.45l29.433-6.18Z" fill="#30424F"/><path opacity=".6" fill-rule="evenodd" clip-rule="evenodd" d="M31.565 6.4a.381.381 0 0 1-.008.432l-.249.351a.386.386 0 0 1-.134.117L9.73 18.676a.388.388 0 0 1-.393-.018l-7.83-5.096a.12.12 0 0 1-.006-.005c-.438-.298-.356-1.03.231-1.142l29.43-6.18a.387.387 0 0 1 .403.165ZM2.207 13.1l7.362 4.792 19.775-10.49L2.207 13.1Z" fill="#30424F"/><path opacity=".6" fill-rule="evenodd" clip-rule="evenodd" d="M31.607 6.736a.383.383 0 0 0-.186-.466.388.388 0 0 0-.491.114l-.197.27L9.255 18.267a.383.383 0 0 0-.194.41l1.661 8.63a.386.386 0 0 0 .74.068l2.55-6.485L31.267 7.52a.384.384 0 0 0 .127-.177l.212-.607Z" fill="url(#a)"/><path opacity=".6" d="m31.242 6.61-6.454 20.511a.258.258 0 0 1-.375.135l-8.394-5.158-1.782-1.192L30.71 7.305a1.92 1.92 0 0 0 .492-.616l.04-.079Z" fill="#30424F"/><path opacity=".6" fill-rule="evenodd" clip-rule="evenodd" d="M31.387 6.255c.187.074.284.279.224.47l-6.454 20.51-.001.005a.645.645 0 0 1-.946.343l-8.393-5.159a.532.532 0 0 1-.013-.008l-1.783-1.192a.383.383 0 0 1-.03-.614l16.473-13.6c.164-.136.298-.303.393-.493l.04-.079a.387.387 0 0 1 .49-.183ZM30.375 8.08 14.88 20.873l1.35.903 8.242 5.065 5.903-18.76Z" fill="#30424F"/></g><defs><linearGradient id="a" x1="24.546" y1="2.98" x2="11.951" y2="30.967" gradientUnits="userSpaceOnUse"><stop offset="0" stop-color="#464951"/><stop offset="1" stop-color="#767982"/></linearGradient></defs></svg>