<svg width="117" height="28" fill="none" xmlns="http://www.w3.org/2000/svg"><g opacity=".6"><path opacity=".6" d="M53.978 26.8h16.524v-3.885H58.553v-6.983h11v-3.886h-11V5.1h11.85V1.215H53.979V26.8ZM83.638 7.611H79.9V3.014h-4.464V7.61H72.75v3.498h2.688v10.67c-.024 3.61 2.565 5.384 5.92 5.284 1.27-.037 2.145-.287 2.626-.45l-.752-3.535a5.496 5.496 0 0 1-1.307.175c-1.122 0-2.023-.4-2.023-2.224v-9.92h3.737V7.611ZM86.677 26.8h4.464V15.52c0-2.437 1.812-4.16 4.266-4.16.752 0 1.69.137 2.072.261v-4.16a10.588 10.588 0 0 0-1.603-.125c-2.17 0-3.983 1.25-4.674 3.473h-.197V7.611h-4.328v19.19ZM107.233 27.175c5.549 0 9.075-3.96 9.075-9.894 0-5.947-3.526-9.92-9.075-9.92-5.55 0-9.076 3.973-9.076 9.92 0 5.934 3.526 9.895 9.076 9.895Zm.024-3.623c-3.071 0-4.575-2.773-4.575-6.284 0-3.51 1.504-6.321 4.575-6.321 3.021 0 4.526 2.81 4.526 6.321 0 3.511-1.505 6.284-4.526 6.284Z" fill="#30424F"/><path opacity=".6" d="M33.761 13.995c0 7.251-5.802 13.13-12.96 13.13-7.157 0-12.96-5.879-12.96-13.13 0-7.251 5.803-13.13 12.96-13.13 7.158 0 12.96 5.879 12.96 13.13Z" fill="#414347" fill-opacity=".6"/><path opacity=".6" fill-rule="evenodd" clip-rule="evenodd" d="M17.098 1.409c-5.353 1.614-9.257 6.638-9.257 12.586s3.904 10.972 9.257 12.586a12.809 12.809 0 0 1-3.703.544c-7.157 0-12.96-5.879-12.96-13.13 0-7.251 5.803-13.13 12.96-13.13 1.287 0 2.53.19 3.703.544Z" fill="#414347" fill-opacity=".25"/><path opacity=".6" d="M41.286 13.995c0 7.251-5.802 13.13-12.96 13.13-7.157 0-12.96-5.879-12.96-13.13 0-7.251 5.803-13.13 12.96-13.13 7.158 0 12.96 5.879 12.96 13.13Z" fill="#30424F"/></g></svg>