<svg width="147" height="31" fill="none" xmlns="http://www.w3.org/2000/svg"><path d="M23.17 9.18V24.94h4.418V16.68c0-1.605.27-2.754.81-3.445.538-.711 1.41-1.067 2.613-1.067 1.058 0 1.795.325 2.21.976.414.63.622 1.595.622 2.896v8.902h4.418v-9.695c0-.975-.093-1.86-.28-2.652-.166-.813-.467-1.494-.902-2.043-.436-.569-1.037-1.006-1.805-1.31-.747-.326-1.712-.488-2.894-.488a6.28 6.28 0 0 0-2.738.64c-.892.406-1.619 1.067-2.178 1.981h-.094V9.18h-4.2ZM41.428 14.027c.062-1.016.322-1.86.778-2.53A5.253 5.253 0 0 1 43.95 9.88a7.427 7.427 0 0 1 2.365-.854 13.292 13.292 0 0 1 2.676-.274c.809 0 1.628.06 2.458.183.83.101 1.587.315 2.272.64a4.4 4.4 0 0 1 1.68 1.372c.436.569.654 1.331.654 2.286v8.201c0 .712.041 1.393.124 2.043.083.65.228 1.138.436 1.463h-4.481a9.747 9.747 0 0 1-.218-.731 10.323 10.323 0 0 1-.093-.793 5.775 5.775 0 0 1-2.49 1.494c-.954.284-1.93.427-2.925.427a8.052 8.052 0 0 1-2.147-.275 4.959 4.959 0 0 1-1.743-.853 4.139 4.139 0 0 1-1.182-1.464c-.27-.59-.405-1.29-.405-2.103 0-.895.156-1.626.467-2.195.332-.59.747-1.057 1.245-1.403.518-.345 1.1-.6 1.742-.762a17.41 17.41 0 0 1 1.992-.427 34.376 34.376 0 0 1 1.96-.244 12.025 12.025 0 0 0 1.712-.274c.498-.122.892-.295 1.182-.518.29-.244.426-.59.405-1.037 0-.467-.083-.833-.249-1.098a1.445 1.445 0 0 0-.623-.64 2.056 2.056 0 0 0-.902-.305 6.036 6.036 0 0 0-1.089-.091c-.871 0-1.556.183-2.054.549-.498.365-.788.975-.871 1.829h-4.419Zm10.207 3.201a2.168 2.168 0 0 1-.716.396c-.27.082-.57.153-.902.214-.311.06-.644.112-.996.152-.353.04-.706.092-1.058.153-.332.06-.664.142-.996.244a2.96 2.96 0 0 0-.84.426 1.888 1.888 0 0 0-.56.64c-.145.265-.218.6-.218 1.007 0 .386.073.711.218.975.145.265.342.478.591.64.25.143.54.244.871.305.332.061.674.092 1.027.092.872 0 1.546-.142 2.023-.427.477-.285.83-.62 1.058-1.006.228-.407.363-.813.405-1.22.062-.406.093-.731.093-.975v-1.616ZM59.608 3.174V24.94h4.419V3.174h-4.42ZM71.427 17.076c0-.63.062-1.25.186-1.86.125-.61.332-1.148.623-1.616a3.55 3.55 0 0 1 1.213-1.128c.498-.305 1.12-.457 1.867-.457.747 0 1.37.152 1.867.457.52.285.924.66 1.214 1.128.311.468.53 1.006.653 1.616.125.61.187 1.23.187 1.86 0 .63-.062 1.25-.186 1.86a4.834 4.834 0 0 1-.654 1.615c-.29.468-.695.844-1.214 1.128-.497.285-1.12.427-1.867.427-.746 0-1.369-.142-1.867-.427a3.552 3.552 0 0 1-1.213-1.128 5.258 5.258 0 0 1-.623-1.616 9.279 9.279 0 0 1-.186-1.86Zm-4.419 0c0 1.26.197 2.398.591 3.414a7.548 7.548 0 0 0 1.68 2.622 7.478 7.478 0 0 0 2.614 1.646c1.017.387 2.158.58 3.423.58 1.266 0 2.407-.194 3.423-.58 1.037-.386 1.92-.935 2.645-1.646a7.546 7.546 0 0 0 1.68-2.622c.395-1.016.592-2.154.592-3.414 0-1.26-.197-2.399-.591-3.415-.395-1.037-.955-1.91-1.68-2.622-.727-.732-1.609-1.29-2.646-1.677-1.016-.406-2.157-.61-3.423-.61-1.265 0-2.406.204-3.423.61a7.265 7.265 0 0 0-2.614 1.677c-.726.712-1.286 1.585-1.68 2.622-.394 1.016-.591 2.155-.591 3.415ZM94.028 21.222c-.684 0-1.255-.142-1.711-.427a3.573 3.573 0 0 1-1.12-1.098 5.018 5.018 0 0 1-.592-1.493 9.513 9.513 0 0 1-.155-1.708c0-.589.062-1.148.186-1.676a4.358 4.358 0 0 1 .654-1.433 3.489 3.489 0 0 1 1.12-1.006c.457-.244.996-.366 1.618-.366.726 0 1.328.132 1.805.396.477.264.86.62 1.151 1.067.29.447.498.966.623 1.555.124.57.186 1.179.186 1.83a5.46 5.46 0 0 1-.249 1.646 4.07 4.07 0 0 1-.684 1.371 3.433 3.433 0 0 1-1.182.976c-.478.244-1.028.366-1.65.366Zm7.966 2.713V9.18h-4.2v2.104h-.063c-.54-.915-1.213-1.565-2.022-1.951-.789-.386-1.712-.58-2.77-.58-1.12 0-2.116.214-2.987.64a6.33 6.33 0 0 0-2.147 1.739c-.581.711-1.027 1.544-1.338 2.5a9.81 9.81 0 0 0-.436 2.926c0 1.078.124 2.104.373 3.08.27.955.685 1.798 1.245 2.53.56.711 1.276 1.28 2.147 1.707.872.407 1.909.61 3.112.61a6.76 6.76 0 0 0 2.77-.58 4.414 4.414 0 0 0 2.053-1.859h.062v2.073c.021 1.118-.259 2.043-.84 2.774-.56.732-1.462 1.098-2.707 1.098-.788 0-1.483-.163-2.085-.488-.601-.305-1.006-.863-1.213-1.677H86.56c.062.895.311 1.657.747 2.287a5.627 5.627 0 0 0 1.68 1.585 7.669 7.669 0 0 0 2.24.884c.83.204 1.64.305 2.428.305 1.846 0 3.319-.244 4.418-.731 1.1-.488 1.94-1.088 2.521-1.8.581-.69.954-1.442 1.12-2.255.187-.813.28-1.535.28-2.165ZM120.644 24.941V9.18h-4.419v8.263c0 1.605-.269 2.764-.809 3.475-.539.691-1.41 1.037-2.614 1.037-1.058 0-1.794-.316-2.209-.945-.415-.65-.622-1.627-.622-2.927V9.179h-4.419v9.695c0 .976.083 1.87.249 2.683.186.793.498 1.474.933 2.043.436.548 1.027.975 1.774 1.28.768.305 1.743.458 2.925.458.934 0 1.846-.204 2.739-.61.892-.407 1.618-1.067 2.178-1.982h.093v2.195h4.201ZM134.827 15.368h-7.189c.021-.305.083-.65.187-1.036.125-.386.322-.752.591-1.098.291-.345.664-.63 1.12-.853.478-.244 1.069-.366 1.774-.366 1.079 0 1.878.284 2.396.853.54.57.913 1.403 1.121 2.5Zm-7.189 2.744h11.607c.083-1.22-.02-2.388-.311-3.506a8.346 8.346 0 0 0-1.431-2.988 6.82 6.82 0 0 0-2.49-2.073c-1.016-.528-2.209-.792-3.578-.792-1.224 0-2.345.213-3.361.64a7.84 7.84 0 0 0-2.583 1.768 7.544 7.544 0 0 0-1.68 2.622c-.394 1.016-.591 2.114-.591 3.293 0 1.22.186 2.337.56 3.353a7.786 7.786 0 0 0 1.649 2.622c.705.732 1.566 1.3 2.583 1.707 1.016.387 2.157.58 3.423.58 1.825 0 3.381-.407 4.667-1.22 1.287-.813 2.241-2.164 2.863-4.055h-3.89c-.145.488-.539.956-1.182 1.403-.643.427-1.411.64-2.303.64-1.244 0-2.199-.315-2.862-.945-.664-.63-1.027-1.646-1.09-3.049Z" fill="#0E0E0E"/><path fill-rule="evenodd" clip-rule="evenodd" d="M4.619 16.395c-.477.403-.594.485-.993.485v3.404c1.696 0 2.635-.794 3.217-1.287l.02-.017c.478-.404.594-.485.993-.485s.516.081.993.485l.02.017c.583.492 1.521 1.287 3.217 1.287 1.697 0 2.636-.794 3.218-1.287l.02-.017c.477-.404.594-.485.993-.485s.515.081.992.485l.02.017c.583.492 1.522 1.287 3.218 1.287s2.635-.794 3.217-1.287l.02-.017c.478-.404.595-.485.994-.485V15.09c-1.697 0-2.636.795-3.218 1.287l-.02.018c-.477.403-.594.485-.993.485s-.515-.082-.992-.485l-.021-.018c-.582-.492-1.52-1.287-3.217-1.287s-2.635.795-3.217 1.287a2.746 2.746 0 0 1-.02.018c-.478.403-.595.485-.994.485-.398 0-.515-.082-.992-.485l-.02-.018c-.583-.492-1.521-1.287-3.218-1.287-1.696 0-2.635.795-3.217 1.287a2.746 2.746 0 0 1-.02.018Z" fill="#0E0E0E"/><path d="M10.822 8.453 7.93 16.458l-1.275 3.574-1.741 4.858H0L8.397 3.076h5.006l8.304 21.814h-5.07l-1.679-4.858-1.275-3.574-2.799-8.005h-.062Z" fill="#0E0E0E"/><path d="M140.456 2.59c-.783 0-1.45.28-2.002.84-.543.547-.814 1.197-.814 1.948 0 .779.276 1.44.828 1.985a2.718 2.718 0 0 0 1.988.816c.773 0 1.434-.273 1.983-.82.549-.551.823-1.211.823-1.98 0-.75-.273-1.399-.818-1.949-.552-.56-1.215-.84-1.988-.84Zm3.407 2.788c0 .955-.34 1.76-1.022 2.414-.662.632-1.457.948-2.385.948-.959 0-1.766-.323-2.423-.971-.656-.648-.985-1.445-.985-2.39 0-.983.355-1.8 1.064-2.45a3.363 3.363 0 0 1 2.344-.913c.94 0 1.743.328 2.409.985.665.657.998 1.45.998 2.377Zm-1.687.566c-.093.529-.303.9-.629 1.113a1.83 1.83 0 0 1-1.008.315c-.518 0-.966-.183-1.345-.548-.376-.365-.564-.844-.564-1.437 0-.553.162-1.025.485-1.414.327-.39.774-.584 1.341-.584.36 0 .673.073.938.219.432.237.7.652.805 1.245l-.869-.013c-.053-.274-.164-.458-.333-.552a.869.869 0 0 0-.467-.133.762.762 0 0 0-.629.315c-.163.207-.245.52-.245.94 0 .417.089.72.268.908a.874.874 0 0 0 .652.283c.231 0 .405-.063.522-.187a.88.88 0 0 0 .232-.47h.846Z" fill="#000"/></svg>